<svg id="Layer_1" enable-background="new 0 0 512 512" height="512" viewBox="0 0 512 512" width="512" xmlns="http://www.w3.org/2000/svg"><g><g><path d="m504.5 274.015v168.16c0 9.96-8.08 18.04-18.04 18.04h-17.62v44.29l-26.09-17.97-38.2-26.32h-148.94c-9.96 0-18.04-8.08-18.04-18.04v-168.16c0-9.96 8.08-18.04 18.04-18.04h230.85c9.96-.001 18.04 8.08 18.04 18.04z" fill="#e9f5ff"/></g><g><path d="m504.5 274.015v168.16c0 9.96-8.08 18.04-18.04 18.04h-17.62v44.29l-26.09-17.97v-39.83h7.62c9.96 0 18.04-8.08 18.04-18.05v-162.15c0-3.93-1.26-7.57-3.4-10.53h21.45c9.96-.001 18.04 8.08 18.04 18.04z" fill="#bde2ef"/></g><g><path d="m274.43 25.544v168.15c0 9.97-8.08 18.04-18.04 18.04h-148.94l-64.29 44.29v-44.29h-17.62c-9.96 0-18.04-8.07-18.04-18.04v-168.15c0-9.97 8.08-18.04 18.04-18.04h230.85c9.96.001 18.04 8.071 18.04 18.04z" fill="#b9f6d3"/></g><g><path d="m274.43 25.544v168.15c0 9.97-8.08 18.04-18.04 18.04h-148.94l-64.29 44.29v-26.47l36.79-25.34h148.94c9.96 0 18.04-8.08 18.04-18.04v-160.32c0-9.97-6.94-18.05-16.9-18.05l.88-.3h25.48c9.96.001 18.04 8.071 18.04 18.04z" fill="#93d8e4"/></g><g><path d="m388.968 337.745v-34.923h-41.318v34.923h-34.932v41.176h34.932v34.923h41.318v-34.923h35.158v-41.176z" fill="#ff6e6e"/></g></g><g><g><path d="m274.428 166.23c-4.143 0-7.5-3.358-7.5-7.5v-133.187c0-5.813-4.729-10.543-10.541-10.543h-158.004c-4.142 0-7.5-3.358-7.5-7.5s3.358-7.5 7.5-7.5h158.004c14.083 0 25.541 11.458 25.541 25.543v133.187c0 4.142-3.358 7.5-7.5 7.5z"/></g><g><path d="m43.16 263.524c-1.194 0-2.392-.285-3.488-.861-2.467-1.296-4.012-3.853-4.012-6.639v-36.786h-10.119c-14.083 0-25.541-11.459-25.541-25.543v-168.152c0-14.085 11.458-25.543 25.541-25.543h37.563c4.142 0 7.5 3.358 7.5 7.5s-3.358 7.5-7.5 7.5h-37.563c-5.812 0-10.541 4.729-10.541 10.543v168.152c0 5.813 4.729 10.543 10.541 10.543h17.619c4.142 0 7.5 3.358 7.5 7.5v30.012l52.531-36.188c1.251-.862 2.735-1.324 4.255-1.324h148.941c5.812 0 10.541-4.729 10.541-10.543 0-4.142 3.357-7.5 7.5-7.5s7.5 3.358 7.5 7.5c0 14.084-11.457 25.543-25.541 25.543h-146.608l-62.364 42.962c-1.275.878-2.763 1.323-4.255 1.324z"/></g><g><path d="m214.599 117.549h-167.275c-4.142 0-7.5-3.358-7.5-7.5s3.358-7.5 7.5-7.5h167.275c4.142 0 7.5 3.358 7.5 7.5s-3.358 7.5-7.5 7.5z"/></g><g><path d="m234.604 86.083h-187.28c-4.142 0-7.5-3.358-7.5-7.5s3.358-7.5 7.5-7.5h187.28c4.142 0 7.5 3.358 7.5 7.5s-3.358 7.5-7.5 7.5z"/></g><g><path d="m234.604 148.406h-187.28c-4.142 0-7.5-3.358-7.5-7.5s3.358-7.5 7.5-7.5h187.28c4.142 0 7.5 3.358 7.5 7.5s-3.358 7.5-7.5 7.5z"/></g><g><path d="m215.261 179.262h-167.937c-4.142 0-7.5-3.358-7.5-7.5s3.358-7.5 7.5-7.5h167.937c4.142 0 7.5 3.358 7.5 7.5s-3.358 7.5-7.5 7.5z"/></g><g><path d="m234.604 54.616h-41.02c-4.142 0-7.5-3.358-7.5-7.5s3.358-7.5 7.5-7.5h41.02c4.142 0 7.5 3.358 7.5 7.5s-3.358 7.5-7.5 7.5z"/></g><g><path d="m158.464 54.616h-111.14c-4.142 0-7.5-3.358-7.5-7.5s3.358-7.5 7.5-7.5h111.14c4.142 0 7.5 3.358 7.5 7.5s-3.358 7.5-7.5 7.5z"/></g><g><g><path d="m393.068 202.275h-15v-59.195h-59.188v-15h66.688c4.143 0 7.5 3.358 7.5 7.5z"/></g><g><path d="m336.027 160.228c-1.92 0-3.839-.732-5.304-2.197l-17.146-17.148c-2.929-2.929-2.929-7.678 0-10.606l17.146-17.147c2.93-2.929 7.678-2.93 10.607 0 2.929 2.929 2.929 7.677 0 10.606l-11.844 11.844 11.844 11.845c2.929 2.929 2.929 7.678-.001 10.607-1.463 1.464-3.383 2.196-5.302 2.196z"/></g><g><path d="m385.568 209.775c-1.989 0-3.896-.79-5.304-2.197l-17.146-17.148c-2.929-2.929-2.929-7.678.001-10.607 2.928-2.929 7.677-2.927 10.606 0l11.843 11.844 11.842-11.843c2.93-2.93 7.677-2.93 10.606-.001s2.93 7.678.001 10.606l-17.146 17.148c-1.405 1.407-3.313 2.198-5.303 2.198z"/></g></g><g><g><path d="m192.789 330.299h-66.687c-4.142 0-7.5-3.357-7.5-7.5v-66.694h15v59.194h59.187z"/></g><g><path d="m175.643 347.447c-1.919 0-3.838-.732-5.303-2.196-2.929-2.929-2.93-7.678-.001-10.606l11.844-11.846-11.843-11.843c-2.929-2.93-2.929-7.678 0-10.607s7.678-2.928 10.606.001l17.146 17.146c2.929 2.93 2.929 7.678 0 10.606l-17.146 17.148c-1.464 1.465-3.383 2.197-5.303 2.197z"/></g><g><path d="m143.248 280.753c-1.919 0-3.839-.732-5.304-2.197l-11.842-11.844-11.842 11.844c-2.929 2.93-7.677 2.929-10.607.001-2.929-2.929-2.929-7.678 0-10.606l17.146-17.148c1.407-1.406 3.314-2.197 5.304-2.197s3.897.791 5.304 2.197l17.146 17.148c2.929 2.929 2.928 7.678 0 10.606-1.466 1.464-3.386 2.196-5.305 2.196z"/></g></g><g><g><path d="m237.572 414.706c-4.142 0-7.5-3.357-7.5-7.5v-133.187c0-14.084 11.458-25.542 25.541-25.542h158.004c4.143 0 7.5 3.358 7.5 7.5s-3.357 7.5-7.5 7.5h-158.004c-5.813 0-10.541 4.729-10.541 10.543v133.188c0 4.141-3.358 7.498-7.5 7.498z"/></g><g><path d="m468.841 512c-1.493 0-2.98-.445-4.256-1.323l-62.364-42.963h-146.607c-14.083 0-25.541-11.459-25.541-25.543 0-4.143 3.358-7.5 7.5-7.5s7.5 3.357 7.5 7.5c0 5.813 4.729 10.543 10.541 10.543h148.94c1.52 0 3.003.462 4.255 1.323l52.531 36.188v-30.012c0-4.143 3.357-7.5 7.5-7.5h17.618c5.813 0 10.541-4.729 10.541-10.543v-168.151c0-5.813-4.729-10.543-10.541-10.543h-37.562c-4.143 0-7.5-3.357-7.5-7.5s3.357-7.5 7.5-7.5h37.562c14.083 0 25.541 11.458 25.541 25.542v168.152c0 14.084-11.458 25.543-25.541 25.543h-10.118v36.787c0 2.786-1.545 5.343-4.012 6.64-1.096.575-2.294.86-3.487.86z"/></g><g><path d="m388.968 421.344h-41.318c-4.143 0-7.5-3.357-7.5-7.5v-27.423h-27.433c-4.143 0-7.5-3.357-7.5-7.5v-41.176c0-4.143 3.357-7.5 7.5-7.5h27.433v-27.423c0-4.143 3.357-7.5 7.5-7.5h41.317c4.143 0 7.5 3.357 7.5 7.5v27.423h27.658c4.143 0 7.5 3.357 7.5 7.5v41.176c0 4.143-3.357 7.5-7.5 7.5h-27.658v27.423c.001 4.142-3.357 7.5-7.499 7.5zm-33.818-15h26.317v-27.423c0-4.143 3.357-7.5 7.5-7.5h27.658v-26.176h-27.658c-4.143 0-7.5-3.357-7.5-7.5v-27.423h-26.317v27.423c0 4.143-3.357 7.5-7.5 7.5h-27.433v26.176h27.433c4.143 0 7.5 3.357 7.5 7.5z"/></g></g></g></svg>