<svg id="Layer_1" enable-background="new 0 0 512 512" height="512" viewBox="0 0 512 512" width="512" xmlns="http://www.w3.org/2000/svg"><g><path d="m504.5 256c0 137.24-111.26 248.5-248.5 248.5-5.79 0-11.52-.2-17.21-.59-129.21-8.84-231.29-116.46-231.29-247.91s102.08-239.07 231.29-247.91c5.69-.39 11.42-.59 17.21-.59 137.24 0 248.5 111.26 248.5 248.5z" fill="#b9f6d3"/><path d="m504.5 256c0 137.24-111.26 248.5-248.5 248.5-5.79 0-11.52-.2-17.21-.59 129.21-8.84 231.28-116.46 231.28-247.91s-102.07-239.07-231.28-247.91c5.69-.39 11.42-.59 17.21-.59 137.24 0 248.5 111.26 248.5 248.5z" fill="#93d8e4"/><path d="m462.25 256c0 113.91-92.34 206.25-206.25 206.25-5.69 0-11.33-.23-16.9-.69-106.01-8.59-189.35-97.34-189.35-205.56s83.34-196.97 189.35-205.56c5.57-.46 11.21-.69 16.9-.69 113.91 0 206.25 92.34 206.25 206.25z" fill="#e9f5ff"/><path d="m462.25 256c0 113.91-92.34 206.25-206.25 206.25-5.69 0-11.33-.23-16.9-.69 106-8.6 189.34-97.34 189.34-205.56s-83.34-196.96-189.34-205.56c5.57-.46 11.21-.69 16.9-.69 113.91 0 206.25 92.34 206.25 206.25z" fill="#bde2ef"/><path d="m330.49 243.12c0 26.49-21.22 44.61-53.36 72.04l-18.07 15.57c-.84.74-1.93 1.15-3.06 1.15s-2.22-.41-3.06-1.15l-13.68-11.79-4.39-3.78c-32.14-27.43-53.36-45.55-53.36-72.04 0-24.51 17.01-43 39.57-43 8.09 0 15.5 2.57 22.03 7.63 6.27 4.85 10.44 11.03 12.89 15.53 2.45-4.5 6.62-10.68 12.89-15.53 3.37-2.61 6.97-4.56 10.78-5.82 3.57-1.21 7.34-1.81 11.25-1.81 22.56 0 39.57 18.49 39.57 43z" fill="#ff6e6e"/><path d="m330.49 243.12c0 26.49-21.22 44.61-53.36 72.04l-18.07 15.57c-.84.74-1.93 1.15-3.06 1.15s-2.22-.41-3.06-1.15l-13.68-11.79 7.87-6.78c32.14-27.43 53.36-45.55 53.36-72.04 0-17.04-8.22-31.17-20.82-38.19 3.57-1.21 7.34-1.81 11.25-1.81 22.56 0 39.57 18.49 39.57 43z" fill="#f44e92"/></g><g><path d="m399.724 44.122c-3.427-2.327-8.091-1.438-10.419 1.987-2.328 3.426-1.438 8.091 1.987 10.419 66.191 44.985 105.708 119.554 105.708 199.472 0 64.374-25.068 124.895-70.587 170.413s-106.039 70.587-170.413 70.587-124.895-25.068-170.413-70.587-70.587-106.039-70.587-170.413 25.068-124.895 70.587-170.413 106.039-70.587 170.413-70.587c37.457 0 73.347 8.354 106.67 24.83 3.712 1.836 8.213.313 10.047-3.398 1.836-3.713.314-8.212-3.398-10.047-35.41-17.508-73.536-26.385-113.319-26.385-68.38 0-132.668 26.629-181.02 74.98s-74.98 112.64-74.98 181.02 26.629 132.668 74.98 181.02 112.64 74.98 181.02 74.98 132.668-26.629 181.02-74.98 74.98-112.64 74.98-181.02c0-84.892-41.973-164.098-112.276-211.878z"/><path d="m178.652 455.323c24.65 9.572 50.674 14.426 77.348 14.426 57.095 0 110.771-22.233 151.144-62.605s62.605-94.049 62.605-151.144-22.233-110.771-62.605-151.144-94.049-62.605-151.144-62.605-110.771 22.233-151.144 62.605-62.605 94.049-62.605 151.144c0 38.197 10.199 75.686 29.495 108.412 18.728 31.763 45.498 58.307 77.415 76.761 3.586 2.073 8.174.847 10.247-2.739s.847-8.174-2.739-10.247c-29.686-17.163-54.583-41.851-72.002-71.393-17.936-30.421-27.416-65.274-27.416-100.794 0-109.591 89.158-198.749 198.749-198.749s198.749 89.158 198.749 198.749-89.158 198.749-198.749 198.749c-24.809 0-49.006-4.512-71.918-13.408-3.865-1.503-8.208.416-9.706 4.276-1.5 3.862.415 8.207 4.276 9.706z"/><path d="m256 116.79c4.143 0 7.5-3.357 7.5-7.5v-24.501c0-4.143-3.357-7.5-7.5-7.5s-7.5 3.357-7.5 7.5v24.501c0 4.143 3.357 7.5 7.5 7.5z"/><path d="m248.5 403.163v24.501c0 4.143 3.357 7.5 7.5 7.5s7.5-3.357 7.5-7.5v-24.501c0-4.143-3.357-7.5-7.5-7.5s-7.5 3.358-7.5 7.5z"/><path d="m403.937 263.5h24.501c4.143 0 7.5-3.357 7.5-7.5s-3.357-7.5-7.5-7.5h-24.501c-4.143 0-7.5 3.357-7.5 7.5s3.357 7.5 7.5 7.5z"/><path d="m110.063 248.5h-24.5c-4.143 0-7.5 3.357-7.5 7.5s3.357 7.5 7.5 7.5h24.501c4.143 0 7.5-3.357 7.5-7.5s-3.358-7.5-7.501-7.5z"/><path d="m372.402 131.805-17.325 17.324c-2.93 2.929-2.93 7.678-.001 10.606 1.465 1.465 3.384 2.197 5.304 2.197 1.919 0 3.839-.732 5.303-2.196l17.325-17.324c2.93-2.929 2.93-7.678.001-10.606-2.929-2.93-7.678-2.929-10.607-.001z"/><path d="m147.276 356.929-17.324 17.324c-2.929 2.93-2.929 7.678 0 10.607 1.465 1.464 3.385 2.196 5.304 2.196s3.839-.732 5.304-2.196l17.324-17.324c2.929-2.93 2.929-7.678 0-10.607-2.93-2.928-7.678-2.928-10.608 0z"/><path d="m355.943 357.477c-2.929 2.929-2.929 7.678.001 10.606l17.325 17.324c1.464 1.464 3.384 2.196 5.303 2.196s3.839-.732 5.304-2.197c2.929-2.929 2.929-7.678-.001-10.606l-17.325-17.324c-2.928-2.928-7.677-2.929-10.607.001z"/><path d="m158.752 149.676-17.325-17.325c-2.93-2.928-7.678-2.928-10.607 0-2.929 2.93-2.929 7.678 0 10.607l17.325 17.325c1.465 1.464 3.385 2.196 5.304 2.196s3.839-.732 5.304-2.196c2.928-2.929 2.928-7.678-.001-10.607z"/><path d="m248.5 202.451c-.262-.212-.526-.422-.795-.63-7.878-6.105-16.836-9.201-26.625-9.201-26.836 0-47.073 21.71-47.073 50.5 0 29.948 23.485 49.995 55.964 77.718l18.011 15.519c2.216 1.95 5.063 3.023 8.019 3.023s5.803-1.073 7.959-2.972l18.044-15.548c24.586-20.986 44.011-37.567 52.017-57.36h25.178c4.143 0 7.5-3.357 7.5-7.5s-3.357-7.5-7.5-7.5h-21.465c.172-1.759.26-3.551.26-5.38 0-28.79-20.237-50.5-47.073-50.5-9.789 0-18.747 3.096-26.622 9.199-.27.209-.535.419-.798.632v-48.134c0-4.143-3.357-7.5-7.5-7.5s-7.5 3.357-7.5 7.5v48.134zm23.738 107.024-16.238 13.992-16.265-14.015c-30.548-26.075-50.729-43.301-50.729-66.332 0-20.238 13.788-35.5 32.073-35.5 6.384 0 12.25 2.038 17.438 6.059 4.578 3.545 7.854 8.014 9.981 11.586v30.735c0 4.143 3.357 7.5 7.5 7.5h61.356c-8.02 14.31-24.116 28.05-45.116 45.975zm1.246-95.798c5.186-4.019 11.052-6.057 17.436-6.057 18.285 0 32.073 15.262 32.073 35.5 0 1.827-.127 3.618-.377 5.38h-59.116v-23.236c2.128-3.572 5.404-8.04 9.984-11.587z"/></g></svg>