<svg id="Layer_1" enable-background="new 0 0 512 512" height="512" viewBox="0 0 512 512" width="512" xmlns="http://www.w3.org/2000/svg"><g><path d="m414.735 42.192v427.61c0 19.16-15.54 34.7-34.7 34.7h-248.07c-19.16 0-34.7-15.54-34.7-34.7v-427.61c0-19.16 15.54-34.69 34.7-34.69h248.07c19.16 0 34.7 15.53 34.7 34.69z" fill="#aac3d6"/><path d="m414.735 42.192v427.61c0 19.16-15.54 34.7-34.7 34.7h-37.98c19.17 0 34.7-15.54 34.7-34.7v-427.61c0-19.16-15.53-34.69-34.7-34.69h37.98c19.16 0 34.7 15.53 34.7 34.69z" fill="#8aabbf"/><g><g><path d="m214.925 88.722c0 20.1-16.29 36.4-36.4 36.4-5.62 0-10.95-1.27-15.7-3.55-12.24-5.86-20.7-18.37-20.7-32.85 0-14.49 8.46-27 20.7-32.86 4.75-2.28 10.08-3.55 15.7-3.55 20.11 0 36.4 16.3 36.4 36.41z" fill="#e9f5ff"/><path d="m214.925 88.722c0 20.1-16.29 36.4-36.4 36.4-5.62 0-10.95-1.27-15.7-3.55 12.24-5.87 20.7-18.37 20.7-32.85 0-14.49-8.46-26.99-20.7-32.86 4.75-2.28 10.08-3.55 15.7-3.55 20.11 0 36.4 16.3 36.4 36.41z" fill="#bde2ef"/></g><g><path d="m369.499 88.724c0 20.1-16.29 36.4-36.4 36.4-5.62 0-10.95-1.27-15.7-3.55-12.24-5.86-20.7-18.37-20.7-32.85 0-14.49 8.46-27 20.7-32.86 4.75-2.28 10.08-3.55 15.7-3.55 20.11 0 36.4 16.3 36.4 36.41z" fill="#e9f5ff"/><path d="m369.499 88.724c0 20.1-16.29 36.4-36.4 36.4-5.62 0-10.95-1.27-15.7-3.55 12.24-5.87 20.7-18.37 20.7-32.85 0-14.49-8.46-26.99-20.7-32.86 4.75-2.28 10.08-3.55 15.7-3.55 20.11 0 36.4 16.3 36.4 36.41z" fill="#bde2ef"/></g><g><path d="m215.113 200.723c0 20.1-16.29 36.4-36.4 36.4-5.62 0-10.95-1.27-15.7-3.55-12.24-5.86-20.7-18.37-20.7-32.85 0-14.49 8.46-27 20.7-32.86 4.75-2.28 10.08-3.55 15.7-3.55 20.11 0 36.4 16.3 36.4 36.41z" fill="#e9f5ff"/><path d="m215.113 200.723c0 20.1-16.29 36.4-36.4 36.4-5.62 0-10.95-1.27-15.7-3.55 12.24-5.87 20.7-18.37 20.7-32.85 0-14.49-8.46-26.99-20.7-32.86 4.75-2.28 10.08-3.55 15.7-3.55 20.11 0 36.4 16.3 36.4 36.41z" fill="#bde2ef"/></g><g><path d="m369.687 200.725c0 20.1-16.29 36.4-36.4 36.4-5.62 0-10.95-1.27-15.7-3.55-12.24-5.86-20.7-18.37-20.7-32.85 0-14.49 8.46-27 20.7-32.86 4.75-2.28 10.08-3.55 15.7-3.55 20.11 0 36.4 16.3 36.4 36.41z" fill="#e9f5ff"/><path d="m369.687 200.725c0 20.1-16.29 36.4-36.4 36.4-5.62 0-10.95-1.27-15.7-3.55 12.24-5.87 20.7-18.37 20.7-32.85 0-14.49-8.46-26.99-20.7-32.86 4.75-2.28 10.08-3.55 15.7-3.55 20.11 0 36.4 16.3 36.4 36.41z" fill="#bde2ef"/></g><g><path d="m215.113 312.153c0 20.1-16.29 36.4-36.4 36.4-5.62 0-10.95-1.27-15.7-3.55-12.24-5.86-20.7-18.37-20.7-32.85 0-14.49 8.46-27 20.7-32.86 4.75-2.28 10.08-3.55 15.7-3.55 20.11 0 36.4 16.3 36.4 36.41z" fill="#e9f5ff"/><path d="m215.113 312.153c0 20.1-16.29 36.4-36.4 36.4-5.62 0-10.95-1.27-15.7-3.55 12.24-5.87 20.7-18.37 20.7-32.85 0-14.49-8.46-26.99-20.7-32.86 4.75-2.28 10.08-3.55 15.7-3.55 20.11 0 36.4 16.3 36.4 36.41z" fill="#bde2ef"/></g><g><path d="m369.687 312.155c0 20.1-16.29 36.4-36.4 36.4-5.62 0-10.95-1.27-15.7-3.55-12.24-5.86-20.7-18.37-20.7-32.85 0-14.49 8.46-27 20.7-32.86 4.75-2.28 10.08-3.55 15.7-3.55 20.11 0 36.4 16.3 36.4 36.41z" fill="#e9f5ff"/><path d="m369.687 312.155c0 20.1-16.29 36.4-36.4 36.4-5.62 0-10.95-1.27-15.7-3.55 12.24-5.87 20.7-18.37 20.7-32.85 0-14.49-8.46-26.99-20.7-32.86 4.75-2.28 10.08-3.55 15.7-3.55 20.11 0 36.4 16.3 36.4 36.41z" fill="#bde2ef"/></g><g><path d="m215.113 423.507c0 20.1-16.29 36.4-36.4 36.4-5.62 0-10.95-1.27-15.7-3.55-12.24-5.86-20.7-18.37-20.7-32.85 0-14.49 8.46-27 20.7-32.86 4.75-2.28 10.08-3.55 15.7-3.55 20.11 0 36.4 16.3 36.4 36.41z" fill="#e9f5ff"/><path d="m215.113 423.507c0 20.1-16.29 36.4-36.4 36.4-5.62 0-10.95-1.27-15.7-3.55 12.24-5.87 20.7-18.37 20.7-32.85 0-14.49-8.46-26.99-20.7-32.86 4.75-2.28 10.08-3.55 15.7-3.55 20.11 0 36.4 16.3 36.4 36.41z" fill="#bde2ef"/></g><g><path d="m369.687 423.509c0 20.1-16.29 36.4-36.4 36.4-5.62 0-10.95-1.27-15.7-3.55-12.24-5.86-20.7-18.37-20.7-32.85 0-14.49 8.46-27 20.7-32.86 4.75-2.28 10.08-3.55 15.7-3.55 20.11 0 36.4 16.3 36.4 36.41z" fill="#e9f5ff"/><path d="m369.687 423.509c0 20.1-16.29 36.4-36.4 36.4-5.62 0-10.95-1.27-15.7-3.55 12.24-5.87 20.7-18.37 20.7-32.85 0-14.49-8.46-26.99-20.7-32.86 4.75-2.28 10.08-3.55 15.7-3.55 20.11 0 36.4 16.3 36.4 36.41z" fill="#bde2ef"/></g></g></g><g><path d="m380.036 0h-248.072c-23.267 0-42.196 18.929-42.196 42.196v16.211c0 4.142 3.357 7.5 7.5 7.5s7.5-3.358 7.5-7.5v-16.211c0-14.996 12.2-27.196 27.196-27.196h248.071c14.996 0 27.196 12.2 27.196 27.196v373.918c0 4.142 3.357 7.5 7.5 7.5s7.5-3.358 7.5-7.5v-373.918c.001-23.267-18.928-42.196-42.195-42.196z"/><path d="m414.732 443.829c-4.143 0-7.5 3.358-7.5 7.5v18.476c0 14.996-12.2 27.196-27.196 27.196h-248.072c-14.996 0-27.196-12.2-27.196-27.196v-376.222c0-4.142-3.357-7.5-7.5-7.5s-7.5 3.358-7.5 7.5v376.222c0 23.267 18.93 42.196 42.196 42.196h248.071c23.268 0 42.196-18.929 42.196-42.196v-18.476c.001-4.142-3.356-7.5-7.499-7.5z"/><path d="m178.525 44.814c-24.209 0-43.904 19.695-43.904 43.904s19.695 43.904 43.904 43.904 43.904-19.695 43.904-43.904-19.695-43.904-43.904-43.904zm0 72.809c-15.938 0-28.904-12.966-28.904-28.904s12.967-28.904 28.904-28.904 28.904 12.966 28.904 28.904-12.967 28.904-28.904 28.904z"/><path d="m333.103 44.814c-24.209 0-43.904 19.695-43.904 43.904s19.695 43.904 43.904 43.904 43.904-19.695 43.904-43.904-19.695-43.904-43.904-43.904zm0 72.809c-15.938 0-28.904-12.966-28.904-28.904s12.967-28.904 28.904-28.904 28.904 12.966 28.904 28.904-12.966 28.904-28.904 28.904z"/><path d="m178.71 156.814c-24.209 0-43.904 19.695-43.904 43.904s19.695 43.904 43.904 43.904 43.904-19.695 43.904-43.904-19.695-43.904-43.904-43.904zm0 72.809c-15.938 0-28.904-12.966-28.904-28.904s12.967-28.904 28.904-28.904 28.904 12.966 28.904 28.904-12.966 28.904-28.904 28.904z"/><path d="m333.29 156.814c-24.209 0-43.904 19.695-43.904 43.904s19.695 43.904 43.904 43.904 43.904-19.695 43.904-43.904-19.695-43.904-43.904-43.904zm0 72.809c-15.938 0-28.904-12.966-28.904-28.904s12.967-28.904 28.904-28.904 28.904 12.966 28.904 28.904-12.967 28.904-28.904 28.904z"/><path d="m222.522 312.153c0-24.209-19.695-43.904-43.904-43.904s-43.904 19.695-43.904 43.904 19.695 43.904 43.904 43.904 43.904-19.695 43.904-43.904zm-72.809 0c0-15.938 12.967-28.904 28.904-28.904s28.904 12.966 28.904 28.904-12.967 28.904-28.904 28.904-28.904-12.966-28.904-28.904z"/><path d="m377.101 312.153c0-24.209-19.695-43.904-43.904-43.904s-43.905 19.695-43.905 43.904 19.696 43.904 43.905 43.904 43.904-19.695 43.904-43.904zm-72.809 0c0-15.938 12.967-28.904 28.905-28.904s28.904 12.966 28.904 28.904-12.967 28.904-28.904 28.904c-15.939.001-28.905-12.966-28.905-28.904z"/><path d="m178.803 467.411c24.209 0 43.905-19.695 43.905-43.904s-19.696-43.904-43.905-43.904-43.904 19.695-43.904 43.904 19.695 43.904 43.904 43.904zm0-72.808c15.938 0 28.905 12.966 28.905 28.904s-12.967 28.904-28.905 28.904-28.904-12.966-28.904-28.904 12.967-28.904 28.904-28.904z"/><path d="m333.382 467.411c24.209 0 43.904-19.695 43.904-43.904s-19.695-43.904-43.904-43.904-43.904 19.695-43.904 43.904 19.695 43.904 43.904 43.904zm0-72.808c15.938 0 28.904 12.966 28.904 28.904s-12.967 28.904-28.904 28.904-28.904-12.966-28.904-28.904 12.967-28.904 28.904-28.904z"/><path d="m248.5 459.911c0 4.142 3.357 7.5 7.5 7.5s7.5-3.358 7.5-7.5v-257.819c0-4.142-3.357-7.5-7.5-7.5s-7.5 3.358-7.5 7.5z"/><path d="m256 174.774c4.143 0 7.5-3.358 7.5-7.5v-114.96c0-4.142-3.357-7.5-7.5-7.5s-7.5 3.358-7.5 7.5v114.96c0 4.143 3.358 7.5 7.5 7.5z"/></g></svg>